<svg width="18" height="18" viewBox="0 0 18 18" fill="none" xmlns="http://www.w3.org/2000/svg">
<g clip-path="url(#clip0_54_4395)">
<path fill-rule="evenodd" clip-rule="evenodd" d="M15 2.25C15.3978 2.25 15.7794 2.40804 16.0607 2.68934C16.342 2.97064 16.5 3.35218 16.5 3.75V14.25C16.5 14.6478 16.342 15.0294 16.0607 15.3107C15.7794 15.592 15.3978 15.75 15 15.75H3C2.60218 15.75 2.22064 15.592 1.93934 15.3107C1.65804 15.0294 1.5 14.6478 1.5 14.25V3.75C1.5 3.35218 1.65804 2.97064 1.93934 2.68934C2.22064 2.40804 2.60218 2.25 3 2.25H15ZM15 3.75H3V14.25H15V3.75ZM12.75 11.25C12.9412 11.2502 13.125 11.3234 13.264 11.4546C13.403 11.5859 13.4867 11.7652 13.4979 11.956C13.5091 12.1469 13.447 12.3348 13.3243 12.4814C13.2016 12.628 13.0276 12.7222 12.8378 12.7448L12.75 12.75H5.25C5.05884 12.7498 4.87498 12.6766 4.73597 12.5454C4.59697 12.4141 4.51332 12.2348 4.50212 12.044C4.49092 11.8531 4.55301 11.6652 4.6757 11.5186C4.79839 11.372 4.97243 11.2778 5.16225 11.2552L5.25 11.25H12.75ZM7.5 5.25C7.89782 5.25 8.27936 5.40804 8.56066 5.68934C8.84196 5.97064 9 6.35218 9 6.75V8.25C9 8.64782 8.84196 9.02936 8.56066 9.31066C8.27936 9.59196 7.89782 9.75 7.5 9.75H6C5.60218 9.75 5.22064 9.59196 4.93934 9.31066C4.65804 9.02936 4.5 8.64782 4.5 8.25V6.75C4.5 6.35218 4.65804 5.97064 4.93934 5.68934C5.22064 5.40804 5.60218 5.25 6 5.25H7.5ZM12.75 8.25C12.9489 8.25 13.1397 8.32902 13.2803 8.46967C13.421 8.61032 13.5 8.80109 13.5 9C13.5 9.19891 13.421 9.38968 13.2803 9.53033C13.1397 9.67098 12.9489 9.75 12.75 9.75H10.5C10.3011 9.75 10.1103 9.67098 9.96967 9.53033C9.82902 9.38968 9.75 9.19891 9.75 9C9.75 8.80109 9.82902 8.61032 9.96967 8.46967C10.1103 8.32902 10.3011 8.25 10.5 8.25H12.75ZM7.5 6.75H6V8.25H7.5V6.75ZM12.75 5.25C12.9412 5.25021 13.125 5.32341 13.264 5.45464C13.403 5.58586 13.4867 5.76521 13.4979 5.95605C13.5091 6.14688 13.447 6.33478 13.3243 6.48137C13.2016 6.62796 13.0276 6.72217 12.8378 6.74475L12.75 6.75H10.5C10.3088 6.74979 10.125 6.67659 9.98597 6.54536C9.84697 6.41414 9.76332 6.23479 9.75212 6.04395C9.74092 5.85312 9.80301 5.66522 9.9257 5.51863C10.0484 5.37204 10.2224 5.27783 10.4123 5.25525L10.5 5.25H12.75Z" fill="#DFA438"/>
</g>
<defs>
<clipPath id="clip0_54_4395">
<rect width="18" height="18" fill="white"/>
</clipPath>
</defs>
</svg>
