<svg width="18" height="18" viewBox="0 0 18 18" fill="none" xmlns="http://www.w3.org/2000/svg">
<path d="M8.99998 6C9.79563 6 10.5587 6.31607 11.1213 6.87868C11.6839 7.44129 12 8.20435 12 9C12 9.79565 11.6839 10.5587 11.1213 11.1213C10.5587 11.6839 9.79563 12 8.99998 12C8.20433 12 7.44127 11.6839 6.87866 11.1213C6.31605 10.5587 5.99998 9.79565 5.99998 9C5.99998 8.20435 6.31605 7.44129 6.87866 6.87868C7.44127 6.31607 8.20433 6 8.99998 6ZM8.99998 7.5C8.60215 7.5 8.22062 7.65804 7.93932 7.93934C7.65802 8.22065 7.49998 8.60218 7.49998 9C7.49998 9.39783 7.65802 9.77936 7.93932 10.0607C8.22062 10.342 8.60215 10.5 8.99998 10.5C9.3978 10.5 9.77934 10.342 10.0606 10.0607C10.3419 9.77936 10.5 9.39783 10.5 9C10.5 8.60218 10.3419 8.22065 10.0606 7.93934C9.77934 7.65804 9.3978 7.5 8.99998 7.5ZM7.49998 16.5C7.31248 16.5 7.15498 16.365 7.12498 16.185L6.84748 14.1975C6.37498 14.01 5.96998 13.755 5.57998 13.455L3.71248 14.2125C3.54748 14.2725 3.34498 14.2125 3.25498 14.0475L1.75498 11.4525C1.70908 11.3752 1.69289 11.2839 1.70946 11.1955C1.72602 11.1072 1.7742 11.0279 1.84498 10.9725L3.42748 9.7275L3.37498 9L3.42748 8.25L1.84498 7.0275C1.7742 6.9721 1.72602 6.89282 1.70946 6.80447C1.69289 6.71613 1.70908 6.62478 1.75498 6.5475L3.25498 3.9525C3.34498 3.7875 3.54748 3.72 3.71248 3.7875L5.57998 4.5375C5.96998 4.245 6.37498 3.99 6.84748 3.8025L7.12498 1.815C7.15498 1.635 7.31248 1.5 7.49998 1.5H10.5C10.6875 1.5 10.845 1.635 10.875 1.815L11.1525 3.8025C11.625 3.99 12.03 4.245 12.42 4.5375L14.2875 3.7875C14.4525 3.72 14.655 3.7875 14.745 3.9525L16.245 6.5475C16.3425 6.7125 16.2975 6.915 16.155 7.0275L14.5725 8.25L14.625 9L14.5725 9.75L16.155 10.9725C16.2975 11.085 16.3425 11.2875 16.245 11.4525L14.745 14.0475C14.655 14.2125 14.4525 14.28 14.2875 14.2125L12.42 13.4625C12.03 13.755 11.625 14.01 11.1525 14.1975L10.875 16.185C10.845 16.365 10.6875 16.5 10.5 16.5H7.49998ZM8.43748 3L8.15998 4.9575C7.25998 5.145 6.46498 5.625 5.88748 6.2925L4.07998 5.5125L3.51748 6.4875L5.09998 7.65C4.79998 8.525 4.79998 9.475 5.09998 10.35L3.50998 11.52L4.07248 12.495L5.89498 11.715C6.47248 12.375 7.25998 12.855 8.15248 13.035L8.42998 15H9.56998L9.84748 13.0425C10.74 12.855 11.5275 12.375 12.105 11.715L13.9275 12.495L14.49 11.52L12.9 10.3575C13.2 9.48 13.2 8.5275 12.9 7.65L14.4825 6.4875L13.92 5.5125L12.1125 6.2925C11.5231 5.61024 10.7237 5.14326 9.83998 4.965L9.56248 3H8.43748Z" fill="#DFA438"/>
</svg>
