<svg width="22" height="22" viewBox="0 0 22 22" fill="none" xmlns="http://www.w3.org/2000/svg">
<path d="M11 0.333252C12.4145 0.333252 13.7711 0.895155 14.7713 1.89535C15.7715 2.89554 16.3334 4.2521 16.3334 5.66659C16.3334 7.08107 15.7715 8.43763 14.7713 9.43782C13.7711 10.438 12.4145 10.9999 11 10.9999C9.58555 10.9999 8.229 10.438 7.2288 9.43782C6.22861 8.43763 5.66671 7.08107 5.66671 5.66659C5.66671 4.2521 6.22861 2.89554 7.2288 1.89535C8.229 0.895155 9.58555 0.333252 11 0.333252ZM11 2.99992C10.2928 2.99992 9.61452 3.28087 9.11442 3.78097C8.61433 4.28106 8.33337 4.95934 8.33337 5.66659C8.33337 6.37383 8.61433 7.05211 9.11442 7.5522C9.61452 8.0523 10.2928 8.33325 11 8.33325C11.7073 8.33325 12.3856 8.0523 12.8857 7.5522C13.3858 7.05211 13.6667 6.37383 13.6667 5.66659C13.6667 4.95934 13.3858 4.28106 12.8857 3.78097C12.3856 3.28087 11.7073 2.99992 11 2.99992ZM11 12.3333C14.56 12.3333 21.6667 14.1066 21.6667 17.6666V21.6666H0.333374V17.6666C0.333374 14.1066 7.44004 12.3333 11 12.3333ZM11 14.8666C7.04004 14.8666 2.86671 16.8133 2.86671 17.6666V19.1333H19.1334V17.6666C19.1334 16.8133 14.96 14.8666 11 14.8666Z" fill="#737791"/>
</svg>
