<svg width="18" height="18" viewBox="0 0 18 18" fill="none" xmlns="http://www.w3.org/2000/svg">
<path d="M15.75 9V12.375H2.25V3.375H9V2.25H2.25C1.95163 2.25 1.66548 2.36853 1.4545 2.5795C1.24353 2.79048 1.125 3.07663 1.125 3.375V12.375C1.125 12.6734 1.24353 12.9595 1.4545 13.1705C1.66548 13.3815 1.95163 13.5 2.25 13.5H6.75V15.75H4.5V16.875H13.5V15.75H11.25V13.5H15.75C16.0484 13.5 16.3345 13.3815 16.5455 13.1705C16.7565 12.9595 16.875 12.6734 16.875 12.375V9H15.75ZM10.125 15.75H7.875V13.5H10.125V15.75Z" fill="#737791"/>
<path d="M11.8125 8.4375L9 5.6475L9.89438 4.76438L11.8125 6.66563L15.9806 2.53125L16.875 3.42L11.8125 8.4375Z" fill="#737791"/>
</svg>
