<svg width="26" height="28" viewBox="0 0 26 28" fill="none" xmlns="http://www.w3.org/2000/svg">
<path d="M13 8.66675C14.4145 8.66675 15.7711 9.22865 16.7713 10.2288C17.7714 11.229 18.3334 12.5856 18.3334 14.0001C18.3334 15.4146 17.7714 16.7711 16.7713 17.7713C15.7711 18.7715 14.4145 19.3334 13 19.3334C11.5855 19.3334 10.229 18.7715 9.22878 17.7713C8.22859 16.7711 7.66669 15.4146 7.66669 14.0001C7.66669 12.5856 8.22859 11.229 9.22878 10.2288C10.229 9.22865 11.5855 8.66675 13 8.66675ZM13 11.3334C12.2928 11.3334 11.6145 11.6144 11.1144 12.1145C10.6143 12.6146 10.3334 13.2928 10.3334 14.0001C10.3334 14.7073 10.6143 15.3856 11.1144 15.8857C11.6145 16.3858 12.2928 16.6667 13 16.6667C13.7073 16.6667 14.3855 16.3858 14.8856 15.8857C15.3857 15.3856 15.6667 14.7073 15.6667 14.0001C15.6667 13.2928 15.3857 12.6146 14.8856 12.1145C14.3855 11.6144 13.7073 11.3334 13 11.3334ZM10.3334 27.3334C10 27.3334 9.72002 27.0934 9.66669 26.7734L9.17335 23.2401C8.33335 22.9067 7.61335 22.4534 6.92002 21.9201L3.60002 23.2668C3.30669 23.3734 2.94669 23.2667 2.78669 22.9734L0.120019 18.3601C0.0384136 18.2227 0.00964452 18.0603 0.0390923 17.9032C0.06854 17.7462 0.154188 17.6052 0.28002 17.5067L3.09335 15.2934L3.00002 14.0001L3.09335 12.6667L0.28002 10.4934C0.154188 10.3949 0.06854 10.254 0.0390923 10.0969C0.00964452 9.93987 0.0384136 9.77746 0.120019 9.64008L2.78669 5.02675C2.94669 4.73341 3.30669 4.61342 3.60002 4.73342L6.92002 6.06675C7.61335 5.54675 8.33335 5.09342 9.17335 4.76008L9.66669 1.22675C9.72002 0.906748 10 0.666748 10.3334 0.666748H15.6667C16 0.666748 16.28 0.906748 16.3334 1.22675L16.8267 4.76008C17.6667 5.09342 18.3867 5.54675 19.08 6.06675L22.4 4.73342C22.6934 4.61342 23.0534 4.73341 23.2134 5.02675L25.88 9.64008C26.0534 9.93341 25.9734 10.2934 25.72 10.4934L22.9067 12.6667L23 14.0001L22.9067 15.3334L25.72 17.5067C25.9734 17.7067 26.0534 18.0667 25.88 18.3601L23.2134 22.9734C23.0534 23.2667 22.6934 23.3867 22.4 23.2668L19.08 21.9334C18.3867 22.4534 17.6667 22.9067 16.8267 23.2401L16.3334 26.7734C16.28 27.0934 16 27.3334 15.6667 27.3334H10.3334ZM12 3.33341L11.5067 6.81342C9.90668 7.14675 8.49335 8.00008 7.46669 9.18675L4.25335 7.80008L3.25335 9.53341L6.06669 11.6001C5.53335 13.1556 5.53335 14.8445 6.06669 16.4001L3.24002 18.4801L4.24002 20.2134L7.48002 18.8267C8.50669 20.0001 9.90668 20.8534 11.4934 21.1734L11.9867 24.6667H14.0134L14.5067 21.1867C16.0934 20.8534 17.4934 20.0001 18.52 18.8267L21.76 20.2134L22.76 18.4801L19.9334 16.4134C20.4667 14.8534 20.4667 13.1601 19.9334 11.6001L22.7467 9.53341L21.7467 7.80008L18.5333 9.18675C17.4856 7.97385 16.0645 7.14365 14.4934 6.82675L14 3.33341H12Z" fill="#737791"/>
</svg>
