<svg width="28" height="24" viewBox="0 0 28 24" fill="none" xmlns="http://www.w3.org/2000/svg">
<path fill-rule="evenodd" clip-rule="evenodd" d="M24.6666 0C25.3739 0 26.0521 0.280951 26.5522 0.781048C27.0523 1.28115 27.3333 1.95942 27.3333 2.66667V21.3333C27.3333 22.0406 27.0523 22.7189 26.5522 23.219C26.0521 23.719 25.3739 24 24.6666 24H3.33329C2.62605 24 1.94777 23.719 1.44767 23.219C0.947577 22.7189 0.666626 22.0406 0.666626 21.3333V2.66667C0.666626 1.95942 0.947577 1.28115 1.44767 0.781048C1.94777 0.280951 2.62605 0 3.33329 0H24.6666ZM24.6666 2.66667H3.33329V21.3333H24.6666V2.66667ZM20.6666 16C21.0065 16.0004 21.3333 16.1305 21.5804 16.3638C21.8276 16.5971 21.9763 16.9159 21.9962 17.2552C22.0161 17.5944 21.9057 17.9285 21.6876 18.1891C21.4695 18.4497 21.1601 18.6172 20.8226 18.6573L20.6666 18.6667H7.33329C6.99345 18.6663 6.66658 18.5362 6.41947 18.3029C6.17235 18.0696 6.02365 17.7507 6.00373 17.4115C5.98381 17.0722 6.09419 16.7382 6.31231 16.4776C6.53043 16.217 6.83983 16.0495 7.17729 16.0093L7.33329 16H20.6666ZM11.3333 5.33333C12.0405 5.33333 12.7188 5.61428 13.2189 6.11438C13.719 6.61448 14 7.29276 14 8V10.6667C14 11.3739 13.719 12.0522 13.2189 12.5523C12.7188 13.0524 12.0405 13.3333 11.3333 13.3333H8.66663C7.95938 13.3333 7.2811 13.0524 6.78101 12.5523C6.28091 12.0522 5.99996 11.3739 5.99996 10.6667V8C5.99996 7.29276 6.28091 6.61448 6.78101 6.11438C7.2811 5.61428 7.95938 5.33333 8.66663 5.33333H11.3333ZM20.6666 10.6667C21.0202 10.6667 21.3594 10.8071 21.6094 11.0572C21.8595 11.3072 22 11.6464 22 12C22 12.3536 21.8595 12.6928 21.6094 12.9428C21.3594 13.1929 21.0202 13.3333 20.6666 13.3333H16.6666C16.313 13.3333 15.9739 13.1929 15.7238 12.9428C15.4738 12.6928 15.3333 12.3536 15.3333 12C15.3333 11.6464 15.4738 11.3072 15.7238 11.0572C15.9739 10.8071 16.313 10.6667 16.6666 10.6667H20.6666ZM11.3333 8H8.66663V10.6667H11.3333V8ZM20.6666 5.33333C21.0065 5.33371 21.3333 5.46384 21.5804 5.69713C21.8276 5.93042 21.9763 6.24927 21.9962 6.58853C22.0161 6.92778 21.9057 7.26184 21.6876 7.52244C21.4695 7.78305 21.1601 7.95053 20.8226 7.99067L20.6666 8H16.6666C16.3268 7.99962 15.9999 7.86949 15.7528 7.6362C15.5057 7.40291 15.357 7.08406 15.3371 6.74481C15.3171 6.40555 15.4275 6.07149 15.6456 5.81089C15.8638 5.55029 16.1732 5.3828 16.5106 5.34267L16.6666 5.33333H20.6666Z" fill="#737791"/>
</svg>
